<svg width="90" height="90" fill="none" xmlns="http://www.w3.org/2000/svg"><path d="M67.692 88h-50A3.692 3.692 0 0 1 14 84.308V14.846a3.692 3.692 0 0 1 3.692-3.692h50a3.692 3.692 0 0 1 3.692 3.692v69.461A3.692 3.692 0 0 1 67.692 88Z" fill="#E99898"/><path d="M69.212 11.48c.21.463.326.978.326 1.52v69.46a3.692 3.692 0 0 1-3.692 3.692h-50a3.685 3.685 0 0 1-1.52-.326A3.693 3.693 0 0 0 17.692 88h50a3.692 3.692 0 0 0 3.692-3.693v-69.46a3.693 3.693 0 0 0-2.172-3.367Z" fill="#C14B4B"/><path d="M65.256 82.852H20.128a1.23 1.23 0 0 1-1.23-1.23V17.544c0-.68.55-1.23 1.23-1.23h45.128c.68 0 1.231.55 1.231 1.23V81.62a1.23 1.23 0 0 1-1.23 1.231Z" fill="#F1F2F2"/><path d="M21.113 60.049a.74.74 0 0 1-.739-.739.74.74 0 0 1 .739-.738.74.74 0 0 1 .738.738.74.74 0 0 1-.738.739Zm0-2.954a.74.74 0 0 1-.739-.739V18.53c0-.195.078-.384.218-.52a.732.732 0 0 1 .52-.218h5.266a.74.74 0 0 1 .739.738.74.74 0 0 1-.739.739h-4.527v37.088a.74.74 0 0 1-.738.739Z" fill="#fff"/><path d="M65.256 16.314h-.615v63.461c0 .68-.551 1.23-1.231 1.23H18.898v.616c0 .68.55 1.231 1.23 1.231h45.128c.68 0 1.231-.55 1.231-1.23V17.544c0-.68-.551-1.23-1.23-1.23Z" fill="#E6E7E8"/><path d="M56.898 16.185 55.054 9.57a2.462 2.462 0 0 0-2.37-1.8H45a2.308 2.308 0 0 1-4.615 0H32.7a2.461 2.461 0 0 0-2.371 1.8l-1.844 6.615a2.462 2.462 0 0 0 2.371 3.123h23.67a2.461 2.461 0 0 0 2.371-3.123Z" fill="#9E9E9E"/><path d="M56.898 16.185 55.054 9.57a2.462 2.462 0 0 0-1.816-1.737l1.814 6.506a2.461 2.461 0 0 1-2.371 3.122H29.01a2.47 2.47 0 0 1-.554-.062 2.463 2.463 0 0 0 2.4 1.909h23.67a2.461 2.461 0 0 0 2.371-3.123Z" fill="#2D2D2D"/><path d="M40.423 8.192a2.307 2.307 0 0 1-.039-.423h-.923c.279.21.606.357.962.423Z" fill="#C14B4B"/><path d="M42.692 3a4.769 4.769 0 1 0 0 9.538 4.769 4.769 0 0 0 0-9.538Zm0 7.077a2.308 2.308 0 1 1 0-4.616 2.308 2.308 0 0 1 0 4.616Z" fill="#fff"/><path d="M45.675 4.048a4.769 4.769 0 0 1-6.705 6.704 4.77 4.77 0 1 0 6.705-6.704Z" fill="#C14B4B"/><path d="M40.733 8.99a2.308 2.308 0 0 1 3.18-3.179 2.306 2.306 0 0 0-4.267 1.22c0 .826.435 1.551 1.087 1.958Z" fill="#C14B4B"/><path d="M30.766 67.572h-6.451v-3.8c0-.407.33-.738.738-.738h5.713v4.538Z" fill="#E99898"/><path d="M61.07 67.572H30.766v-4.538h29.566c.408 0 .738.33.738.739v3.799Z" fill="#939598"/><path d="M24.315 67.572H61.07v4.537H24.315v-4.537Z" fill="#fff"/><path d="M60.332 76.646H25.053a.738.738 0 0 1-.738-.738v-3.8H61.07v3.8c0 .408-.33.738-.738.738Z" fill="#2D2D2D"/><path d="M33.951 51.77c-.469 0-.928-.229-1.204-.65a17.239 17.239 0 0 1-.942-1.63 1.437 1.437 0 1 1 2.564-1.298c.234.463.498.919.783 1.355a1.437 1.437 0 0 1-1.201 2.223Zm13.119 7.103c-.385 0-.773-.013-1.154-.039a1.437 1.437 0 1 1 .191-2.867 14.51 14.51 0 0 0 3.033-.118 1.436 1.436 0 1 1 .415 2.844c-.818.12-1.654.18-2.486.18Zm-6.438-1.379a1.43 1.43 0 0 1-.59-.127 17.133 17.133 0 0 1-3.142-1.845 1.437 1.437 0 1 1 1.71-2.31 14.25 14.25 0 0 0 2.614 1.535 1.437 1.437 0 0 1-.591 2.747Zm13.978-.551a1.437 1.437 0 0 1-.695-2.696c.456-.251.903-.53 1.328-.829a1.437 1.437 0 0 1 1.653 2.351c-.51.36-1.047.694-1.595.996-.22.121-.457.178-.691.178Z" fill="#C14B4B"/><path d="M40.523 31.353c0 5.708-6.074 12.085-7.707 13.695a.6.6 0 0 1-.822.021c-1.603-1.426-7.245-6.856-7.66-13.005-.315-4.653 3.26-8.727 7.922-8.817a8.107 8.107 0 0 1 8.267 8.106Z" fill="#9E9E9E"/><path d="M37.151 24.772a8.069 8.069 0 0 1 1.526 4.734c0 5.709-6.075 12.085-7.707 13.696a.601.601 0 0 1-.822.022 29.051 29.051 0 0 1-.257-.232 30.04 30.04 0 0 0 2.103 2.078.6.6 0 0 0 .822-.022c1.633-1.61 7.707-7.987 7.707-13.695 0-2.71-1.33-5.11-3.372-6.581Z" fill="#2D2D2D"/><path d="M32.407 34.652a3.615 3.615 0 1 0 0-7.23 3.615 3.615 0 0 0 0 7.23Z" fill="#58595B"/><path d="M76.465 34.321c0 8.94-9.514 18.929-12.071 21.452a.941.941 0 0 1-1.288.033c-2.512-2.234-11.348-10.739-11.998-20.37-.492-7.288 5.106-13.669 12.408-13.81 7.128-.137 12.949 5.6 12.949 12.695Z" fill="#E99898"/><path d="M71.775 24.467a12.645 12.645 0 0 1 2.843 8.008c0 8.94-9.513 18.928-12.07 21.452a.941.941 0 0 1-1.289.033c-.251-.224-.566-.51-.93-.856a46.186 46.186 0 0 0 2.777 2.702.941.941 0 0 0 1.288-.033c2.557-2.523 12.07-12.511 12.07-21.452 0-3.976-1.827-7.525-4.689-9.854Z" fill="#C14B4B"/><path d="M63.754 39.49a5.662 5.662 0 1 0 0-11.324 5.662 5.662 0 0 0 0 11.323Z" fill="#58595B"/></svg>