<svg width="90" height="90" fill="none" xmlns="http://www.w3.org/2000/svg"><path d="M15.071 81.929h6.072V88l12.143-12.143-6.072-6.071-12.143 12.143Z" fill="#fff"/><path d="M27.214 69.786 15.071 81.929h3.036l10.625-10.625-1.518-1.518Zm-3.036 12.143h-3.035V88l3.035-3.036V81.93Z" fill="#2D2D2D"/><path d="M63.643 81.929H57.57V88L45.43 75.857l6.071-6.071 12.143 12.143Z" fill="#fff"/><path d="m48.464 75.857 4.554-4.553-1.518-1.518-6.071 6.071L57.57 88v-3.036l-9.107-9.107Z" fill="#2D2D2D"/><path d="M54.765 17.673a24.286 24.286 0 0 1-9.74-4.352l-5.668-4.25-5.666 4.25A24.289 24.289 0 0 1 19.12 18.18H9v24.888a39.464 39.464 0 0 0 24.808 36.64l5.55 2.222 5.548-2.22a39.466 39.466 0 0 0 24.808-36.642V30.32c-7.505 0-13.74-5.48-14.95-12.648Z" fill="#E69292"/><path d="M39.88 79.71a39.466 39.466 0 0 1-24.81-36.643V18.179H9v24.888a39.464 39.464 0 0 0 24.808 36.641l5.55 2.22 3.035-1.214-2.514-1.004Z" fill="#C04848"/><path d="M69.714 27.286c-6.706 0-12.143-5.437-12.143-12.143S63.008 3 69.714 3s12.143 5.437 12.143 12.143-5.437 12.143-12.143 12.143Z" fill="#9E9E9E"/><path d="M60.607 15.143c0-6.191 4.637-11.29 10.625-12.038A12.213 12.213 0 0 0 69.714 3c-6.706 0-12.143 5.437-12.143 12.143s5.437 12.143 12.143 12.143c.515 0 1.02-.043 1.518-.105-5.988-.748-10.625-5.847-10.625-12.038Z" fill="#2D2D2D"/><path d="M75.786 16.357V13.93h-1.374a4.84 4.84 0 0 0-.518-1.25l.972-.971-1.717-1.717-.971.972a4.84 4.84 0 0 0-1.25-.518V9.071H68.5v1.374a4.84 4.84 0 0 0-1.25.518l-.97-.972-1.717 1.717.971.971a4.84 4.84 0 0 0-.518 1.25h-1.373v2.428h1.373c.116.445.29.864.518 1.25l-.971.97 1.716 1.717.972-.971a4.84 4.84 0 0 0 1.249.518v1.373h2.428v-1.373a4.84 4.84 0 0 0 1.25-.518l.971.971 1.717-1.716-.972-.972a4.84 4.84 0 0 0 .518-1.249h1.374Zm-6.072 1.214a2.432 2.432 0 0 1-2.428-2.428 2.432 2.432 0 0 1 2.428-2.429 2.432 2.432 0 0 1 2.429 2.429 2.432 2.432 0 0 1-2.429 2.428Z" fill="#fff"/><path d="M39.357 63.714c-10.059 0-18.214-8.155-18.214-18.214s8.155-18.214 18.214-18.214S57.571 35.44 57.571 45.5s-8.155 18.214-18.214 18.214Z" fill="#2D2D2D"/><path d="m50.741 40.947-13.66 13.66-9.108-9.107 4.554-4.553L37.08 45.5l9.108-9.107 4.553 4.553Z" fill="#fff"/></svg>