<svg width="90" height="90" fill="none" xmlns="http://www.w3.org/2000/svg"><path d="M59.167 26.375a.707.707 0 0 1-.643-1.005l9.125-19.773 9.626 19.76a.708.708 0 0 1-1.273.62L67.684 8.902l-7.874 17.06a.708.708 0 0 1-.643.412Zm-45.334 0a.708.708 0 0 1-.643-1.005l9.126-19.773 9.626 19.76a.708.708 0 0 1-1.274.62L22.351 8.902l-7.874 17.06a.708.708 0 0 1-.644.412Z" fill="#9E9E9E"/><path d="M12.417 25.667H32.25a1.416 1.416 0 0 1 1.417 1.416V28.5a8.5 8.5 0 0 1-8.5 8.5H19.5a8.5 8.5 0 0 1-8.5-8.5v-1.417a1.417 1.417 0 0 1 1.417-1.416Z" fill="#E69292"/><path d="M33.667 27.083H23.75a1.417 1.417 0 0 0-1.417 1.417v5.667A2.833 2.833 0 0 1 19.5 37h5.667a8.5 8.5 0 0 0 8.5-8.5v-1.417Zm8.5-18.416H22.333V5.833h19.834v2.834Z" fill="#C14B4B"/><path d="M42.167 7.25H22.333V5.833h19.834V7.25Z" fill="#E69292"/><path d="M22.333 10.083a2.833 2.833 0 1 0 0-5.666 2.833 2.833 0 0 0 0 5.666Z" fill="#E69292"/><path d="M22.333 8.667a1.417 1.417 0 1 0 0-2.834 1.417 1.417 0 0 0 0 2.834Zm25.5-2.834h19.834v2.834H47.833V5.833Z" fill="#C14B4B"/><path d="M47.833 5.833h19.834V7.25H47.833V5.833Z" fill="#E69292"/><path d="M26.583 54h46.75v28.333h-46.75V54Z" fill="#C14B4B"/><path d="M26.583 59.667h29.75v22.666h-29.75V59.667Z" fill="#E69292"/><path d="M36.5 65.333h9.917a2.833 2.833 0 0 1 2.833 2.834v14.166H33.667V68.167a2.833 2.833 0 0 1 2.833-2.834Z" fill="#2D2D2D"/><path d="M13.833 48.333h62.334v2.834A2.833 2.833 0 0 1 73.333 54H16.667a2.833 2.833 0 0 1-2.834-2.833v-2.834Z" fill="#fff"/><path d="M73.333 54h-25.5A2.833 2.833 0 0 1 45 51.167v-2.834h31.167v2.834A2.833 2.833 0 0 1 73.333 54Z" fill="#9E9E9E"/><path d="M16.667 82.333h56.666a2.833 2.833 0 0 1 2.834 2.834V88H13.833v-2.833a2.833 2.833 0 0 1 2.834-2.834Z" fill="#fff"/><path d="M76.167 88H45v-2.833a2.833 2.833 0 0 1 2.833-2.834h25.5a2.833 2.833 0 0 1 2.834 2.834V88Zm-59.5-34H28v4.25a1.416 1.416 0 0 1-1.417 1.417h-8.5a1.417 1.417 0 0 1-1.416-1.417V54Z" fill="#9E9E9E"/><path d="M16.667 54h4.25v4.25a1.416 1.416 0 0 1-1.417 1.417h-1.417a1.417 1.417 0 0 1-1.416-1.417V54Z" fill="#fff"/><path d="M18.083 76.667h8.5A1.416 1.416 0 0 1 28 78.083v4.25H16.667v-4.25a1.417 1.417 0 0 1 1.416-1.416Z" fill="#9E9E9E"/><path d="M18.083 76.667H19.5a1.417 1.417 0 0 1 1.417 1.416v4.25h-4.25v-4.25a1.417 1.417 0 0 1 1.416-1.416Z" fill="#fff"/><path d="M18.083 59.667h8.5v17h-8.5v-17Z" fill="#9E9E9E"/><path d="M18.083 62.5H19.5a2.833 2.833 0 0 1 2.833 2.833v11.334h-4.25V62.5Z" fill="#fff"/><path d="M39.333 54h11.334v4.25a1.417 1.417 0 0 1-1.417 1.417h-8.5a1.417 1.417 0 0 1-1.417-1.417V54Z" fill="#9E9E9E"/><path d="M39.333 54h4.25v4.25a1.416 1.416 0 0 1-1.416 1.417H40.75a1.417 1.417 0 0 1-1.417-1.417V54Z" fill="#fff"/><path d="M40.75 76.667h8.5a1.417 1.417 0 0 1 1.417 1.416v4.25H39.333v-4.25a1.417 1.417 0 0 1 1.417-1.416Z" fill="#9E9E9E"/><path d="M40.75 76.667h1.417a1.417 1.417 0 0 1 1.416 1.416v4.25h-4.25v-4.25a1.417 1.417 0 0 1 1.417-1.416Z" fill="#fff"/><path d="M40.75 59.667h8.5v17h-8.5v-17Z" fill="#9E9E9E"/><path d="M40.75 62.5h1.417A2.833 2.833 0 0 1 45 65.333v11.334h-4.25V62.5Z" fill="#fff"/><path d="M13.833 48.333 29.417 32.75 45 48.333H13.833Z" fill="#9E9E9E"/><path d="M29.417 37 18.083 48.333h4.25l9.209-9.208L29.417 37ZM45 48.333 29.417 32.75H59.41a2.83 2.83 0 0 1 2.003.83l14.754 14.753H45Z" fill="#2D2D2D"/><path d="M42.167 5.833h5.666V32.75h-5.666V5.833Z" fill="#C14B4B"/><path d="M42.167 12.917h1.416A1.417 1.417 0 0 1 45 14.333V32.75h-2.833V12.917ZM45 11.5A4.25 4.25 0 1 0 45 3a4.25 4.25 0 0 0 0 8.5Z" fill="#E69292"/><path d="M45 9.139a1.889 1.889 0 1 0 0-3.778 1.889 1.889 0 0 0 0 3.778Z" fill="#C14B4B"/><path d="M67.667 10.083a2.833 2.833 0 1 0 0-5.666 2.833 2.833 0 0 0 0 5.666Z" fill="#E69292"/><path d="M67.667 8.667a1.417 1.417 0 1 0 0-2.834 1.417 1.417 0 0 0 0 2.834Z" fill="#C14B4B"/><path d="M57.75 25.667h19.833A1.417 1.417 0 0 1 79 27.083V28.5a8.5 8.5 0 0 1-8.5 8.5h-5.667a8.5 8.5 0 0 1-8.5-8.5v-1.417a1.417 1.417 0 0 1 1.417-1.416Z" fill="#E69292"/><path d="M79 27.083h-9.917a1.417 1.417 0 0 0-1.416 1.417v5.667A2.833 2.833 0 0 1 64.833 37H70.5a8.5 8.5 0 0 0 8.5-8.5v-1.417Z" fill="#C14B4B"/></svg>