<svg width="90" height="90" fill="none" xmlns="http://www.w3.org/2000/svg"><path d="M58.577 38.962a6.545 6.545 0 0 1-6.538-6.539V19.346h-3.27l-6.538-9.808H3V48.77h78.462v-9.807H58.576Z" fill="#C14B4B"/><path d="M58.577 38.962a6.545 6.545 0 0 1-6.538-6.539v-3.27h-42.5v13.078h65.384v-3.27H58.577Z" fill="#fff"/><path d="M3 42.23h78.462V88H3V42.23Z" fill="#E69292"/><path d="M3 42.23h6.538V88H3V42.23Z" fill="#A73838"/><path d="M9.539 29.154h6.538V42.23H9.539V29.154Z" fill="#D2D2D2"/><path d="M84.73 35.692H58.578a3.268 3.268 0 0 1-3.27-3.269V6.27A3.268 3.268 0 0 1 58.578 3H84.73A3.268 3.268 0 0 1 88 6.27v26.153a3.268 3.268 0 0 1-3.27 3.27Z" fill="#9E9E9E"/><path d="M58.577 32.423V6.27A3.268 3.268 0 0 1 61.847 3h-3.27a3.268 3.268 0 0 0-3.27 3.27v26.153a3.268 3.268 0 0 0 3.27 3.27h3.27a3.268 3.268 0 0 1-3.27-3.27Z" fill="#2D2D2D"/><path d="M78.192 32.423H65.115a3.268 3.268 0 0 1-3.269-3.27v-9.807a3.268 3.268 0 0 1 3.27-3.27h13.076a3.268 3.268 0 0 1 3.27 3.27v9.808a3.268 3.268 0 0 1-3.27 3.27Z" fill="#fff"/><path d="M66.75 16.077v-4.904a3.268 3.268 0 0 1 3.27-3.27h3.269a3.268 3.268 0 0 1 3.269 3.27v4.904h1.634v-4.904A4.904 4.904 0 0 0 73.29 6.27h-3.27a4.904 4.904 0 0 0-4.904 4.904v4.904h1.635Z" fill="#fff"/></svg>