<svg width="36" height="36" fill="none" xmlns="http://www.w3.org/2000/svg"><path d="M33.495 25.373c-.974-.815-2.03-1.686-3.006-2.492a5.018 5.018 0 0 0-3.51-1.146 5.04 5.04 0 0 0-3.348 1.575 1.957 1.957 0 0 1-1.4.672 1.925 1.925 0 0 1-1.441-.575l-8.764-8.925a2.025 2.025 0 0 1-.381-2.245 1.99 1.99 0 0 1 .471-.643A5.225 5.225 0 0 0 13.67 8.12a5.243 5.243 0 0 0-1.202-3.613 640.985 640.985 0 0 0-2.37-2.967A4.203 4.203 0 0 0 8.655.405 4.129 4.129 0 0 0 5.098.401a4.203 4.203 0 0 0-1.444 1.132C-.417 5.812-1.6 13.197 2.774 17.432a82.206 82.206 0 0 0 6.948 8.334 83.435 83.435 0 0 0 8.172 7.066 8.881 8.881 0 0 0 5.534 2.746c1.638.178 3.294.016 4.868-.477a12.093 12.093 0 0 0 4.29-2.392l.914-.772a4.262 4.262 0 0 0 1.113-1.47 4.336 4.336 0 0 0-.002-3.625 4.261 4.261 0 0 0-1.116-1.469Zm-.791 5.581c-3.734 3.71-10.221 4.965-13.94.96a88.702 88.702 0 0 1-8.157-7.049 80.264 80.264 0 0 1-6.852-8.226C.126 13.206.681 7.107 3.856 3.28c.769-1.014 1.626-2.07 3.014-2.02 2.268.02 3.233 2.615 4.625 4.05.64.76.97 1.74.922 2.74a3.94 3.94 0 0 1-1.18 2.636 3.268 3.268 0 0 0-.744 1.058 3.321 3.321 0 0 0 .649 3.639l8.763 8.925c.306.309.67.552 1.07.714a3.16 3.16 0 0 0 2.508-.057c.393-.18.746-.439 1.039-.76a3.807 3.807 0 0 1 2.527-1.194 3.79 3.79 0 0 1 2.654.861c.973.804 2.026 1.673 3 2.486.33.28.597.632.78 1.029a3.035 3.035 0 0 1 .001 2.538c-.183.397-.45.748-.78 1.029Z" fill="#fff"/></svg>