<svg width="90" height="90" viewBox="0 0 90 90" fill="none" xmlns="http://www.w3.org/2000/svg">
<path d="M15.0714 81.9286H21.1428V88L33.2857 75.8571L27.2143 69.7857L15.0714 81.9286Z" fill="white"/>
<path d="M27.2143 69.7857L15.0714 81.9286H18.1071L28.7321 71.3036L27.2143 69.7857Z" fill="#2D2D2D"/>
<path d="M24.1785 81.9286H21.1428V88L24.1785 84.9643V81.9286Z" fill="#2D2D2D"/>
<path d="M63.6429 81.9286H57.5714V88L45.4286 75.8571L51.5 69.7857L63.6429 81.9286Z" fill="white"/>
<path d="M48.4643 75.8571L53.0179 71.3036L51.5 69.7857L45.4286 75.8571L57.5714 88V84.9643L48.4643 75.8571Z" fill="#2D2D2D"/>
<path d="M54.7649 17.6731C51.2556 16.9597 47.9224 15.4935 45.0248 13.3214L39.3571 9.07141L33.691 13.3214C29.4865 16.474 24.3744 18.1786 19.1196 18.1786H9V43.0669C9 59.2032 18.8251 73.7154 33.8079 79.7079L39.3571 81.9286L44.9064 79.7094C59.8892 73.7154 69.7143 59.2047 69.7143 43.0669V30.3214C62.2085 30.3214 55.9746 24.8404 54.7649 17.6731Z" fill="#E69292"/>
<path d="M39.8793 79.7095C24.8965 73.7155 15.0714 59.2048 15.0714 43.0669V18.1786H9V43.0669C9 59.2032 18.8251 73.7155 33.8079 79.708L39.3571 81.9286L42.3929 80.7143L39.8793 79.7095Z" fill="#C04848"/>
<path d="M69.7143 27.2857C63.0084 27.2857 57.5714 21.8488 57.5714 15.1429C57.5714 8.43696 63.0084 3 69.7143 3C76.4202 3 81.8571 8.43696 81.8571 15.1429C81.8571 21.8488 76.4202 27.2857 69.7143 27.2857Z" fill="#9E9E9E"/>
<path d="M60.6071 15.1429C60.6071 8.95152 65.2442 3.85304 71.2321 3.10473C70.7343 3.0425 70.2288 3 69.7143 3C63.0084 3 57.5714 8.43696 57.5714 15.1429C57.5714 21.8488 63.0084 27.2857 69.7143 27.2857C70.2288 27.2857 70.7343 27.2432 71.2321 27.181C65.2442 26.4327 60.6071 21.3342 60.6071 15.1429Z" fill="#2D2D2D"/>
<path d="M75.7857 16.3571V13.9286H74.412C74.2967 13.4838 74.1221 13.0649 73.8944 12.6794L74.8659 11.7079L73.1492 9.99123L72.1777 10.9627C71.7922 10.735 71.3733 10.5604 70.9285 10.4451V9.07141H68.5V10.4451C68.0552 10.5604 67.6363 10.735 67.2508 10.9627L66.2793 9.99123L64.5626 11.7079L65.5341 12.6794C65.3064 13.0649 65.1318 13.4838 65.0165 13.9286H63.6428V16.3571H65.0165C65.1318 16.8019 65.3064 17.2208 65.5341 17.6063L64.5626 18.5778L66.2793 20.2944L67.2508 19.323C67.6363 19.5507 68.0552 19.7253 68.5 19.8406V21.2143H70.9285V19.8406C71.3733 19.7253 71.7922 19.5507 72.1777 19.323L73.1492 20.2944L74.8659 18.5778L73.8944 17.6063C74.1221 17.2208 74.2967 16.8019 74.412 16.3571H75.7857ZM69.7143 17.5714C68.3755 17.5714 67.2857 16.4816 67.2857 15.1428C67.2857 13.8041 68.3755 12.7143 69.7143 12.7143C71.053 12.7143 72.1428 13.8041 72.1428 15.1428C72.1428 16.4816 71.053 17.5714 69.7143 17.5714Z" fill="white"/>
<path d="M39.3571 63.7143C29.2983 63.7143 21.1428 55.5588 21.1428 45.5C21.1428 35.4412 29.2983 27.2857 39.3571 27.2857C49.4159 27.2857 57.5714 35.4412 57.5714 45.5C57.5714 55.5588 49.4159 63.7143 39.3571 63.7143Z" fill="#2D2D2D"/>
<path d="M50.7411 40.9465L37.0804 54.6072L27.9733 45.5L32.5268 40.9465L37.0804 45.5L46.1876 36.3929L50.7411 40.9465Z" fill="white"/>
</svg>
