<svg width="90" height="90" viewBox="0 0 90 90" fill="none" xmlns="http://www.w3.org/2000/svg">
<path d="M59.1666 26.375C59.0478 26.3749 58.9309 26.345 58.8267 26.2878C58.7224 26.2307 58.6343 26.1483 58.5703 26.0482C58.5062 25.9481 58.4685 25.8334 58.4604 25.7149C58.4523 25.5963 58.4742 25.4776 58.524 25.3697L67.6489 5.59729L77.2754 25.3564C77.3532 25.5247 77.3619 25.7169 77.2996 25.8915C77.2374 26.0662 77.1091 26.2095 76.9424 26.2906C76.7756 26.3718 76.5837 26.3843 76.4079 26.3255C76.232 26.2667 76.0862 26.1413 76.0018 25.9762L67.6843 8.90273L59.8102 25.9635C59.7534 26.0864 59.6627 26.1905 59.5486 26.2634C59.4346 26.3364 59.302 26.3751 59.1666 26.375Z" fill="#9E9E9E"/>
<path d="M13.8333 26.375C13.7145 26.375 13.5975 26.345 13.4933 26.2879C13.389 26.2308 13.3008 26.1484 13.2368 26.0483C13.1728 25.9481 13.135 25.8335 13.1269 25.7149C13.1188 25.5963 13.1407 25.4776 13.1905 25.3697L22.3156 5.59729L31.942 25.3564C32.0214 25.525 32.0311 25.718 31.9692 25.8936C31.9072 26.0693 31.7786 26.2135 31.6111 26.295C31.4436 26.3765 31.2507 26.3887 31.0742 26.3291C30.8978 26.2694 30.7519 26.1426 30.6683 25.9762L22.351 8.90273L14.4765 25.9635C14.4198 26.0863 14.3291 26.1904 14.2151 26.2633C14.1011 26.3363 13.9686 26.375 13.8333 26.375Z" fill="#9E9E9E"/>
<path d="M12.4167 25.6667H32.25C32.6257 25.6667 32.9861 25.8159 33.2517 26.0816C33.5174 26.3473 33.6667 26.7076 33.6667 27.0834V28.5C33.6667 30.7544 32.7711 32.9164 31.1771 34.5104C29.583 36.1045 27.421 37 25.1667 37H19.5C17.2457 37 15.0837 36.1045 13.4896 34.5104C11.8955 32.9164 11 30.7544 11 28.5V27.0834C11 26.7076 11.1493 26.3473 11.4149 26.0816C11.6806 25.8159 12.0409 25.6667 12.4167 25.6667Z" fill="#E69292"/>
<path d="M33.6667 27.0833H23.75C23.3743 27.0833 23.0139 27.2326 22.7483 27.4982C22.4826 27.7639 22.3333 28.1243 22.3333 28.5V34.1666C22.3333 34.9181 22.0348 35.6388 21.5035 36.1701C20.9721 36.7015 20.2514 37 19.5 37H25.1667C27.421 37 29.583 36.1044 31.1771 34.5104C32.7711 32.9163 33.6667 30.7543 33.6667 28.5V27.0833Z" fill="#C14B4B"/>
<path d="M42.1667 8.66669H22.3334V5.83335H42.1667V8.66669Z" fill="#C14B4B"/>
<path d="M42.1667 7.25H22.3334V5.83333H42.1667V7.25Z" fill="#E69292"/>
<path d="M22.3333 10.0834C23.8981 10.0834 25.1667 8.81483 25.1667 7.25002C25.1667 5.68521 23.8981 4.41669 22.3333 4.41669C20.7685 4.41669 19.5 5.68521 19.5 7.25002C19.5 8.81483 20.7685 10.0834 22.3333 10.0834Z" fill="#E69292"/>
<path d="M22.3334 8.66665C23.1158 8.66665 23.7501 8.03238 23.7501 7.24998C23.7501 6.46758 23.1158 5.83331 22.3334 5.83331C21.551 5.83331 20.9167 6.46758 20.9167 7.24998C20.9167 8.03238 21.551 8.66665 22.3334 8.66665Z" fill="#C14B4B"/>
<path d="M47.8333 5.83331H67.6666V8.66665H47.8333V5.83331Z" fill="#C14B4B"/>
<path d="M47.8333 5.83331H67.6666V7.24998H47.8333V5.83331Z" fill="#E69292"/>
<path d="M26.5833 54H73.3333V82.3333H26.5833V54Z" fill="#C14B4B"/>
<path d="M26.5833 59.6667H56.3333V82.3334H26.5833V59.6667Z" fill="#E69292"/>
<path d="M36.5001 65.3333H46.4167C47.1682 65.3333 47.8889 65.6318 48.4202 66.1632C48.9516 66.6945 49.2501 67.4152 49.2501 68.1666V82.3333H33.6667V68.1666C33.6667 67.4152 33.9653 66.6945 34.4966 66.1632C35.028 65.6318 35.7486 65.3333 36.5001 65.3333Z" fill="#2D2D2D"/>
<path d="M13.8333 48.3333H76.1666V51.1666C76.1666 51.9181 75.8681 52.6388 75.3367 53.1701C74.8054 53.7015 74.0847 54 73.3333 54H16.6666C15.9151 54 15.1945 53.7015 14.6631 53.1701C14.1318 52.6388 13.8333 51.9181 13.8333 51.1666V48.3333Z" fill="white"/>
<path d="M73.3334 54H47.8334C47.082 54 46.3613 53.7015 45.8299 53.1701C45.2986 52.6388 45.0001 51.9181 45.0001 51.1667V48.3333H76.1667V51.1667C76.1667 51.9181 75.8682 52.6388 75.3369 53.1701C74.8055 53.7015 74.0849 54 73.3334 54Z" fill="#9E9E9E"/>
<path d="M16.6666 82.3333H73.3333C74.0847 82.3333 74.8054 82.6318 75.3367 83.1632C75.8681 83.6945 76.1666 84.4152 76.1666 85.1666V88H13.8333V85.1666C13.8333 84.4152 14.1318 83.6945 14.6631 83.1632C15.1945 82.6318 15.9151 82.3333 16.6666 82.3333Z" fill="white"/>
<path d="M76.1667 88H45.0001V85.1667C45.0001 84.4152 45.2986 83.6945 45.8299 83.1632C46.3613 82.6318 47.082 82.3333 47.8334 82.3333H73.3334C74.0849 82.3333 74.8055 82.6318 75.3369 83.1632C75.8682 83.6945 76.1667 84.4152 76.1667 85.1667V88Z" fill="#9E9E9E"/>
<path d="M16.6667 54H28.0001V58.25C28.0001 58.6257 27.8508 58.9861 27.5851 59.2517C27.3195 59.5174 26.9591 59.6667 26.5834 59.6667H18.0834C17.7077 59.6667 17.3474 59.5174 17.0817 59.2517C16.816 58.9861 16.6667 58.6257 16.6667 58.25V54Z" fill="#9E9E9E"/>
<path d="M16.6667 54H20.9167V58.25C20.9167 58.6257 20.7675 58.9861 20.5018 59.2517C20.2361 59.5174 19.8758 59.6667 19.5001 59.6667H18.0834C17.7077 59.6667 17.3474 59.5174 17.0817 59.2517C16.816 58.9861 16.6667 58.6257 16.6667 58.25V54Z" fill="white"/>
<path d="M18.0834 76.6667H26.5834C26.9591 76.6667 27.3195 76.8159 27.5851 77.0816C27.8508 77.3473 28.0001 77.7076 28.0001 78.0834V82.3334H16.6667V78.0834C16.6667 77.7076 16.816 77.3473 17.0817 77.0816C17.3474 76.8159 17.7077 76.6667 18.0834 76.6667Z" fill="#9E9E9E"/>
<path d="M18.0834 76.6667H19.5001C19.8758 76.6667 20.2361 76.8159 20.5018 77.0816C20.7675 77.3473 20.9167 77.7076 20.9167 78.0834V82.3334H16.6667V78.0834C16.6667 77.7076 16.816 77.3473 17.0817 77.0816C17.3474 76.8159 17.7077 76.6667 18.0834 76.6667Z" fill="white"/>
<path d="M18.0833 59.6667H26.5833V76.6667H18.0833V59.6667Z" fill="#9E9E9E"/>
<path d="M18.0833 62.5H19.4999C20.2514 62.5 20.972 62.7985 21.5034 63.3299C22.0347 63.8612 22.3333 64.5819 22.3333 65.3333V76.6667H18.0833V62.5Z" fill="white"/>
<path d="M39.3333 54H50.6666V58.25C50.6666 58.6257 50.5173 58.9861 50.2517 59.2517C49.986 59.5174 49.6256 59.6667 49.2499 59.6667H40.7499C40.3742 59.6667 40.0139 59.5174 39.7482 59.2517C39.4825 58.9861 39.3333 58.6257 39.3333 58.25V54Z" fill="#9E9E9E"/>
<path d="M39.3333 54H43.5833V58.25C43.5833 58.6257 43.434 58.9861 43.1683 59.2517C42.9026 59.5174 42.5423 59.6667 42.1666 59.6667H40.7499C40.3742 59.6667 40.0139 59.5174 39.7482 59.2517C39.4825 58.9861 39.3333 58.6257 39.3333 58.25V54Z" fill="white"/>
<path d="M40.7499 76.6667H49.2499C49.6256 76.6667 49.986 76.8159 50.2517 77.0816C50.5173 77.3473 50.6666 77.7076 50.6666 78.0834V82.3334H39.3333V78.0834C39.3333 77.7076 39.4825 77.3473 39.7482 77.0816C40.0139 76.8159 40.3742 76.6667 40.7499 76.6667Z" fill="#9E9E9E"/>
<path d="M40.7499 76.6667H42.1666C42.5423 76.6667 42.9026 76.8159 43.1683 77.0816C43.434 77.3473 43.5833 77.7076 43.5833 78.0834V82.3334H39.3333V78.0834C39.3333 77.7076 39.4825 77.3473 39.7482 77.0816C40.0139 76.8159 40.3742 76.6667 40.7499 76.6667Z" fill="white"/>
<path d="M40.75 59.6667H49.25V76.6667H40.75V59.6667Z" fill="#9E9E9E"/>
<path d="M40.75 62.5H42.1667C42.9181 62.5 43.6388 62.7985 44.1701 63.3299C44.7015 63.8612 45 64.5819 45 65.3333V76.6667H40.75V62.5Z" fill="white"/>
<path d="M13.8333 48.3333L29.4166 32.75L44.9999 48.3333H13.8333Z" fill="#9E9E9E"/>
<path d="M29.4166 37L18.0833 48.3333H22.3333L31.5416 39.125L29.4166 37Z" fill="#2D2D2D"/>
<path d="M45.0001 48.3333L29.4167 32.75H59.4099C60.1613 32.75 60.8819 33.0485 61.4132 33.5798L76.1667 48.3333H45.0001Z" fill="#2D2D2D"/>
<path d="M42.1667 5.83331H47.8334V32.75H42.1667V5.83331Z" fill="#C14B4B"/>
<path d="M42.1667 12.9167H43.5834C43.9591 12.9167 44.3195 13.0659 44.5852 13.3316C44.8508 13.5973 45.0001 13.9576 45.0001 14.3334V32.75H42.1667V12.9167Z" fill="#E69292"/>
<path d="M45 11.5C47.3472 11.5 49.25 9.59721 49.25 7.25C49.25 4.90279 47.3472 3 45 3C42.6528 3 40.75 4.90279 40.75 7.25C40.75 9.59721 42.6528 11.5 45 11.5Z" fill="#E69292"/>
<path d="M45 9.13892C46.0433 9.13892 46.889 8.29321 46.889 7.24997C46.889 6.20673 46.0433 5.36102 45 5.36102C43.9568 5.36102 43.1111 6.20673 43.1111 7.24997C43.1111 8.29321 43.9568 9.13892 45 9.13892Z" fill="#C14B4B"/>
<path d="M67.6666 10.0834C69.2314 10.0834 70.4999 8.81483 70.4999 7.25002C70.4999 5.68521 69.2314 4.41669 67.6666 4.41669C66.1018 4.41669 64.8333 5.68521 64.8333 7.25002C64.8333 8.81483 66.1018 10.0834 67.6666 10.0834Z" fill="#E69292"/>
<path d="M67.6667 8.66665C68.4491 8.66665 69.0833 8.03238 69.0833 7.24998C69.0833 6.46758 68.4491 5.83331 67.6667 5.83331C66.8843 5.83331 66.25 6.46758 66.25 7.24998C66.25 8.03238 66.8843 8.66665 67.6667 8.66665Z" fill="#C14B4B"/>
<path d="M57.7499 25.6667H77.5833C77.959 25.6667 78.3193 25.8159 78.585 26.0816C78.8507 26.3473 78.9999 26.7076 78.9999 27.0834V28.5C78.9999 30.7544 78.1044 32.9164 76.5103 34.5104C74.9163 36.1045 72.7543 37 70.4999 37H64.8333C62.5789 37 60.4169 36.1045 58.8228 34.5104C57.2288 32.9164 56.3333 30.7544 56.3333 28.5V27.0834C56.3333 26.7076 56.4825 26.3473 56.7482 26.0816C57.0139 25.8159 57.3742 25.6667 57.7499 25.6667Z" fill="#E69292"/>
<path d="M78.9999 27.0833H69.0833C68.7075 27.0833 68.3472 27.2326 68.0815 27.4982C67.8158 27.7639 67.6666 28.1243 67.6666 28.5V34.1666C67.6666 34.9181 67.3681 35.6388 66.8367 36.1701C66.3054 36.7015 65.5847 37 64.8333 37H70.4999C72.7543 37 74.9163 36.1044 76.5103 34.5104C78.1044 32.9163 78.9999 30.7543 78.9999 28.5V27.0833Z" fill="#C14B4B"/>
</svg>
