<svg width="90" height="90" viewBox="0 0 90 90" fill="none" xmlns="http://www.w3.org/2000/svg">
<path d="M67.6923 88H17.6922C15.6532 88 14 86.3468 14 84.3077V14.8462C14 12.8072 15.6532 11.154 17.6922 11.154H67.6919C69.731 11.154 71.3841 12.8072 71.3841 14.8462V84.3074C71.3845 86.3468 69.7313 88 67.6923 88Z" fill="#E99898"/>
<path d="M69.2119 11.48C69.4216 11.9435 69.538 12.4582 69.538 12.9999V82.4611C69.538 84.5001 67.8848 86.1533 65.8457 86.1533H15.846C15.3043 86.1533 14.79 86.0366 14.3262 85.8273C14.9055 87.1082 16.1946 87.9996 17.6923 87.9996H67.692C69.7311 87.9996 71.3843 86.3464 71.3843 84.3074V14.8462C71.3846 13.3489 70.4932 12.0594 69.2119 11.48Z" fill="#C14B4B"/>
<path d="M65.2562 82.8522H20.1282C19.4484 82.8522 18.8975 82.3012 18.8975 81.6214V17.5448C18.8975 16.865 19.4484 16.3141 20.1282 16.3141H65.2562C65.936 16.3141 66.487 16.865 66.487 17.5448V81.6214C66.487 82.3012 65.936 82.8522 65.2562 82.8522Z" fill="#F1F2F2"/>
<path d="M21.1125 60.0488C20.7064 60.0488 20.374 59.7165 20.374 59.3103C20.374 58.9041 20.7064 58.5718 21.1125 58.5718C21.5187 58.5718 21.8511 58.9041 21.8511 59.3103C21.8511 59.7165 21.5187 60.0488 21.1125 60.0488ZM21.1125 57.0948C20.7064 57.0948 20.374 56.7624 20.374 56.3562V18.5292C20.374 18.3335 20.4516 18.1452 20.5919 18.0086C20.7285 17.8683 20.9205 17.7907 21.1125 17.7907H26.3782C26.7844 17.7907 27.1167 18.123 27.1167 18.5292C27.1167 18.9354 26.7844 19.2678 26.3782 19.2678H21.8511V56.3526V56.3562C21.8511 56.7624 21.5187 57.0948 21.1125 57.0948Z" fill="white"/>
<path d="M65.2562 16.3141H64.6407V79.7751C64.6407 80.4549 64.0897 81.0059 63.4099 81.0059H18.8975V81.6214C18.8975 82.3012 19.4484 82.8522 20.1282 82.8522H65.2562C65.936 82.8522 66.487 82.3012 66.487 81.6214V17.5448C66.487 16.865 65.936 16.3141 65.2562 16.3141Z" fill="#E6E7E8"/>
<path d="M56.8985 16.1852L55.0545 9.56986C54.7579 8.50565 53.7883 7.76935 52.6834 7.76935H44.9999C44.9999 9.04367 43.9667 10.0772 42.6924 10.0772C41.4181 10.0772 40.3845 9.04403 40.3845 7.76935H32.7009C31.5961 7.76935 30.6264 8.50565 30.3299 9.56986L28.4858 16.1852C28.0486 17.7541 29.2284 19.3076 30.8572 19.3076H54.5275C56.1567 19.3076 57.3361 17.7541 56.8985 16.1852Z" fill="#9E9E9E"/>
<path d="M56.8983 16.1852L55.0542 9.56989C54.8087 8.68846 54.1015 8.03229 53.2382 7.83252L55.0516 14.3389C55.4892 15.9079 54.3094 17.4613 52.6806 17.4613H29.0107C28.819 17.4613 28.634 17.4396 28.4568 17.3989C28.7046 18.4676 29.6595 19.3076 30.857 19.3076H54.5273C56.1565 19.3076 57.3359 17.7542 56.8983 16.1852Z" fill="#2D2D2D"/>
<path d="M40.4229 8.19179C40.3974 8.05479 40.3841 7.91373 40.3841 7.76898H39.4609C39.7397 7.97835 40.0669 8.12606 40.4229 8.19179Z" fill="#C14B4B"/>
<path d="M42.6921 3C40.0582 3 37.9231 5.13506 37.9231 7.76936C37.9231 10.4033 40.0582 12.5384 42.6921 12.5384C45.326 12.5384 47.4615 10.4033 47.4615 7.76936C47.4615 5.13543 45.326 3 42.6921 3ZM42.6921 10.0769C41.4178 10.0769 40.3842 9.04368 40.3842 7.769C40.3842 6.49431 41.4178 5.46149 42.6921 5.46149C43.9668 5.46149 44.9996 6.49468 44.9996 7.769C44.9996 9.04331 43.9668 10.0769 42.6921 10.0769Z" fill="white"/>
<path d="M45.6751 4.04797C46.3306 4.86478 46.7227 5.90203 46.7227 7.03086C46.7227 9.66479 44.5876 11.7999 41.9533 11.7999C40.8245 11.7999 39.7873 11.4077 38.9705 10.7523C39.8445 11.8412 41.1868 12.5384 42.6919 12.5384C45.3258 12.5384 47.4612 10.4033 47.4612 7.76938C47.4616 6.26427 46.7641 4.92201 45.6751 4.04797Z" fill="#C14B4B"/>
<path d="M40.7335 8.98939C40.5123 8.63527 40.3845 8.21727 40.3845 7.76899C40.3845 6.49467 41.4181 5.46148 42.6924 5.46148C43.1407 5.46148 43.5587 5.58925 43.9128 5.81043C43.5051 5.15758 42.7803 4.72296 41.9539 4.72296C40.6796 4.72296 39.646 5.75615 39.646 7.03047C39.646 7.85724 40.0806 8.5821 40.7335 8.98939Z" fill="#C14B4B"/>
<path d="M30.7664 67.5718H24.3147V63.7728C24.3147 63.3648 24.6452 63.0343 25.0532 63.0343H30.7664V67.5718Z" fill="#E99898"/>
<path d="M61.0701 67.5718H30.7664V63.0344H60.3315C60.7396 63.0344 61.0701 63.3649 61.0701 63.7729V67.5718Z" fill="#939598"/>
<path d="M24.3147 67.5718H61.0701V72.1093H24.3147V67.5718Z" fill="white"/>
<path d="M60.3316 76.6464H25.0532C24.6452 76.6464 24.3147 76.3159 24.3147 75.9078V72.1089H61.0701V75.9078C61.0701 76.3159 60.7396 76.6464 60.3316 76.6464Z" fill="#2D2D2D"/>
<path d="M33.951 51.7701C33.482 51.7701 33.0226 51.5412 32.7468 51.1195C32.4041 50.5955 32.0873 50.0471 31.8048 49.4903C31.4463 48.7824 31.7291 47.9176 32.4374 47.5591C33.1456 47.2001 34.0104 47.4837 34.3686 48.1916C34.6034 48.6547 34.8671 49.1107 35.1522 49.5468C35.5864 50.2111 35.4003 51.1017 34.736 51.536C34.4938 51.6944 34.2209 51.7701 33.951 51.7701Z" fill="#C14B4B"/>
<path d="M47.0695 58.8729C46.6851 58.8729 46.297 58.8599 45.9159 58.8344C45.1238 58.7816 44.5249 58.097 44.5777 57.305C44.6305 56.5133 45.3144 55.9132 46.1072 55.9668C47.1116 56.034 48.1451 55.9941 49.1399 55.8494C49.9257 55.7341 50.6546 56.2788 50.7691 57.0642C50.8835 57.8496 50.3396 58.5793 49.5546 58.6934C48.7374 58.8127 47.9014 58.8729 47.0695 58.8729ZM40.6325 57.4944C40.435 57.4944 40.2341 57.4534 40.0421 57.3666C38.9354 56.867 37.8782 56.2467 36.9 55.5222C36.2623 55.0499 36.1279 54.1496 36.6006 53.5123C37.0732 52.8746 37.9735 52.7405 38.6104 53.2128C39.4247 53.8158 40.3039 54.3321 41.2244 54.7475C41.9478 55.0739 42.2694 55.925 41.943 56.6484C41.7034 57.1794 41.1801 57.4944 40.6325 57.4944Z" fill="#C14B4B"/>
<path d="M54.6096 56.9434C54.1022 56.9434 53.6111 56.6746 53.3489 56.199C52.9664 55.5036 53.2197 54.63 53.915 54.2471C54.3714 53.996 54.8182 53.7172 55.2429 53.4184C55.8913 52.962 56.7882 53.1179 57.245 53.767C57.7018 54.4162 57.5452 55.3127 56.8961 55.7691C56.3857 56.1281 55.8492 56.463 55.3009 56.7647C55.0811 56.8862 54.8437 56.9434 54.6096 56.9434Z" fill="#C14B4B"/>
<path d="M40.5232 31.3526C40.5232 37.061 34.4488 43.4377 32.8163 45.0485C32.5903 45.2715 32.2314 45.2807 31.994 45.0695C30.3907 43.6434 24.7487 38.2131 24.3337 32.0638C24.0194 27.4111 27.5939 23.3371 32.2562 23.247C36.8066 23.1594 40.5232 26.8218 40.5232 31.3526Z" fill="#9E9E9E"/>
<path d="M37.1514 24.7716C38.1115 26.1035 38.6768 27.739 38.6768 29.5063C38.6768 35.2147 32.6025 41.5914 30.97 43.2021C30.744 43.4252 30.3851 43.4344 30.1476 43.2235C30.0712 43.1556 29.9855 43.0781 29.8914 42.9924C30.7739 43.9525 31.5434 44.6692 31.9939 45.0698C32.231 45.2807 32.5903 45.2715 32.8163 45.0484C34.4488 43.4377 40.5231 37.0606 40.5231 31.3526C40.5231 28.6426 39.1938 26.2435 37.1514 24.7716Z" fill="#2D2D2D"/>
<path d="M32.4074 34.6519C34.4037 34.6519 36.0221 33.0336 36.0221 31.0372C36.0221 29.0409 34.4037 27.4225 32.4074 27.4225C30.4111 27.4225 28.7927 29.0409 28.7927 31.0372C28.7927 33.0336 30.4111 34.6519 32.4074 34.6519Z" fill="#58595B"/>
<path d="M76.4648 34.3214C76.4648 43.2619 66.9508 53.2496 64.3937 55.7728C64.0396 56.1221 63.4776 56.1365 63.1057 55.806C60.5944 53.5724 51.7576 45.0672 51.1077 35.4358C50.6159 28.1484 56.2139 21.7673 63.5163 21.6266C70.6438 21.4888 76.4648 27.2253 76.4648 34.3214Z" fill="#E99898"/>
<path d="M71.7752 24.4673C73.5528 26.6523 74.6185 29.4391 74.6185 32.4751C74.6185 41.4156 65.1045 51.4034 62.5474 53.9266C62.1933 54.2759 61.6312 54.2903 61.2594 53.9598C61.0076 53.736 60.6926 53.4491 60.3281 53.1042C61.4917 54.3316 62.489 55.2577 63.1057 55.8061C63.4772 56.1366 64.0396 56.1222 64.3937 55.7729C66.9508 53.2497 76.4648 43.2619 76.4648 34.3214C76.4648 30.3449 74.637 26.7955 71.7752 24.4673Z" fill="#C14B4B"/>
<path d="M63.7538 39.4893C66.8805 39.4893 69.4153 36.9545 69.4153 33.8278C69.4153 30.701 66.8805 28.1663 63.7538 28.1663C60.627 28.1663 58.0923 30.701 58.0923 33.8278C58.0923 36.9545 60.627 39.4893 63.7538 39.4893Z" fill="#58595B"/>
</svg>
