<svg width="90" height="90" viewBox="0 0 90 90" fill="none" xmlns="http://www.w3.org/2000/svg">
<path d="M58.5769 38.9615C54.971 38.9615 52.0385 36.029 52.0385 32.4231V19.3461H48.7692L42.2308 9.53845H3V48.7692H81.4615V38.9615H58.5769Z" fill="#C14B4B"/>
<path d="M58.577 38.9616C54.9711 38.9616 52.0386 36.0291 52.0386 32.4231V29.1539H9.53857V42.2308H74.9232V38.9616H58.577Z" fill="white"/>
<path d="M3 42.2308H81.4615V88H3V42.2308Z" fill="#E69292"/>
<path d="M3 42.2308H9.53846V88H3V42.2308Z" fill="#A73838"/>
<path d="M9.53857 29.1539H16.077V42.2308H9.53857V29.1539Z" fill="#D2D2D2"/>
<path d="M84.7307 35.6923H58.5768C56.7706 35.6923 55.3076 34.2293 55.3076 32.4231V6.26923C55.3076 4.46298 56.7706 3 58.5768 3H84.7307C86.5369 3 87.9999 4.46298 87.9999 6.26923V32.4231C87.9999 34.2293 86.5369 35.6923 84.7307 35.6923Z" fill="#9E9E9E"/>
<path d="M58.5768 32.4231V6.26923C58.5768 4.46298 60.0398 3 61.8461 3H58.5768C56.7706 3 55.3076 4.46298 55.3076 6.26923V32.4231C55.3076 34.2293 56.7706 35.6923 58.5768 35.6923H61.8461C60.0398 35.6923 58.5768 34.2293 58.5768 32.4231Z" fill="#2D2D2D"/>
<path d="M78.1923 32.4231H65.1154C63.3092 32.4231 61.8462 30.9601 61.8462 29.1538V19.3461C61.8462 17.5399 63.3092 16.0769 65.1154 16.0769H78.1923C79.9986 16.0769 81.4616 17.5399 81.4616 19.3461V29.1538C81.4616 30.9601 79.9986 32.4231 78.1923 32.4231Z" fill="white"/>
<path d="M66.7501 16.0769V11.1731C66.7501 9.36682 68.2131 7.90384 70.0193 7.90384H73.2886C75.0948 7.90384 76.5578 9.36682 76.5578 11.1731V16.0769H78.1924V11.1731C78.1924 8.46451 75.9971 6.26923 73.2886 6.26923H70.0193C67.3108 6.26923 65.1155 8.46451 65.1155 11.1731V16.0769H66.7501Z" fill="white"/>
</svg>
